<svg width="92" height="92" viewBox="0 0 92 92" fill="none" xmlns="http://www.w3.org/2000/svg">
<g clip-path="url(#clip0_214_308)">
<path d="M38.3333 87.1317C36.8489 86.5212 35.5338 85.5612 34.5 84.3333H11.5C10.4833 84.3333 9.50831 83.9295 8.78942 83.2106C8.07053 82.4917 7.66667 81.5167 7.66667 80.5V20.125C7.66667 19.8708 7.76763 19.6271 7.94736 19.4474C8.12708 19.2676 8.37083 19.1667 8.625 19.1667H83.375C83.6292 19.1667 83.8729 19.2676 84.0526 19.4474C84.2324 19.6271 84.3333 19.8708 84.3333 20.125V39.9433L92 43.2017V11.5C92 8.45001 90.7884 5.52494 88.6317 3.36827C86.4751 1.2116 83.55 0 80.5 0L11.5 0C8.45001 0 5.52494 1.2116 3.36827 3.36827C1.2116 5.52494 0 8.45001 0 11.5L0 80.5C0 83.55 1.2116 86.4751 3.36827 88.6317C5.52494 90.7884 8.45001 92 11.5 92H49.8333L38.3333 87.1317ZM40.25 5.75C41.2667 5.75 42.2417 6.15387 42.9606 6.87276C43.6795 7.59165 44.0833 8.56667 44.0833 9.58333C44.0833 10.6 43.6795 11.575 42.9606 12.2939C42.2417 13.0128 41.2667 13.4167 40.25 13.4167C39.2333 13.4167 38.2583 13.0128 37.5394 12.2939C36.8205 11.575 36.4167 10.6 36.4167 9.58333C36.4167 8.56667 36.8205 7.59165 37.5394 6.87276C38.2583 6.15387 39.2333 5.75 40.25 5.75ZM26.8333 5.75C27.85 5.75 28.825 6.15387 29.5439 6.87276C30.2628 7.59165 30.6667 8.56667 30.6667 9.58333C30.6667 10.6 30.2628 11.575 29.5439 12.2939C28.825 13.0128 27.85 13.4167 26.8333 13.4167C25.8167 13.4167 24.8416 13.0128 24.1228 12.2939C23.4039 11.575 23 10.6 23 9.58333C23 8.56667 23.4039 7.59165 24.1228 6.87276C24.8416 6.15387 25.8167 5.75 26.8333 5.75ZM13.4167 5.75C14.4333 5.75 15.4084 6.15387 16.1272 6.87276C16.8461 7.59165 17.25 8.56667 17.25 9.58333C17.25 10.6 16.8461 11.575 16.1272 12.2939C15.4084 13.0128 14.4333 13.4167 13.4167 13.4167C12.4 13.4167 11.425 13.0128 10.7061 12.2939C9.9872 11.575 9.58333 10.6 9.58333 9.58333C9.58333 8.56667 9.9872 7.59165 10.7061 6.87276C11.425 6.15387 12.4 5.75 13.4167 5.75Z" fill="white" fill-opacity="0.1"/>
<path d="M92 52.0183C91.9994 51.2659 91.7774 50.5302 91.3616 49.9031C90.9458 49.276 90.3546 48.7851 89.6617 48.4916L66.6617 38.64C66.1887 38.4397 65.6803 38.3364 65.1667 38.3364C64.6531 38.3364 64.1447 38.4397 63.6717 38.64L40.6717 48.4916C39.9788 48.7851 39.3877 49.276 38.9718 49.9031C38.556 50.5302 38.334 51.2659 38.3334 52.0183V78.315C38.334 79.0674 38.556 79.8031 38.9718 80.4302C39.3877 81.0573 39.9788 81.5482 40.6717 81.8416L63.6717 91.6933C64.1447 91.8936 64.6531 91.9968 65.1667 91.9968C65.6803 91.9968 66.1887 91.8936 66.6617 91.6933L89.6617 81.8416C90.3546 81.5482 90.9458 81.0573 91.3616 80.4302C91.7774 79.8031 91.9994 79.0674 92 78.315V52.0183ZM65.1667 46.345L78.43 52.0183L65.1667 57.73L51.9034 52.0183L65.1667 46.345ZM46 57.845L61.3334 64.4V82.34L46 75.785V57.845ZM69 82.34V64.4L84.3334 57.845V75.785L69 82.34Z" fill="white" fill-opacity="0.1"/>
</g>
<defs>
<clipPath id="clip0_214_308">
<rect width="92" height="92" fill="white"/>
</clipPath>
</defs>
</svg>
