<svg width="92" height="92" viewBox="0 0 92 92" fill="none" xmlns="http://www.w3.org/2000/svg">
<g clip-path="url(#clip0_214_360)">
<path d="M37.4133 43.125H54.5867C54.0304 34.7416 51.6911 26.5735 47.725 19.1667H44.275C40.3089 26.5735 37.9696 34.7416 37.4133 43.125ZM31.7017 43.125C32.1492 35.3498 34.0202 27.7229 37.2217 20.6233C32.3817 22.2652 28.1114 25.2551 24.9129 29.2413C21.7144 33.2275 19.7208 38.0443 19.1667 43.125H31.7017ZM60.2983 43.125H72.8333C72.2916 38.0624 70.3208 33.2583 67.1509 29.2739C63.981 25.2895 59.743 22.2892 54.9317 20.6233C58.0803 27.733 59.8993 35.3596 60.2983 43.125ZM60.2983 48.875C59.8508 56.6502 57.9798 64.2771 54.7783 71.3767C59.6183 69.7348 63.8886 66.7449 67.0871 62.7587C70.2856 58.7725 72.2792 53.9557 72.8333 48.875H60.2983ZM31.7017 48.875H19.1667C19.7084 53.9376 21.6792 58.7417 24.8491 62.7261C28.019 66.7105 32.257 69.7108 37.0683 71.3767C33.9197 64.267 32.1007 56.6404 31.7017 48.875ZM54.5867 48.875H37.4133C37.9812 57.2564 40.3198 65.4221 44.275 72.8333H47.725C51.6911 65.4265 54.0304 57.2584 54.5867 48.875ZM46 0C44.8628 0 43.7511 0.337232 42.8055 0.96905C41.8599 1.60087 41.1229 2.4989 40.6877 3.54957C40.2525 4.60025 40.1386 5.75638 40.3605 6.87177C40.5824 7.98716 41.13 9.01171 41.9341 9.81586C42.7383 10.62 43.7628 11.1676 44.8782 11.3895C45.9936 11.6114 47.1498 11.4975 48.2004 11.0623C49.2511 10.6271 50.1491 9.89011 50.781 8.94453C51.4128 7.99895 51.75 6.88724 51.75 5.75C51.75 4.22501 51.1442 2.76247 50.0659 1.68414C48.9875 0.605802 47.525 0 46 0ZM46 80.5C44.8628 80.5 43.7511 80.8372 42.8055 81.469C41.8599 82.1009 41.1229 82.9989 40.6877 84.0496C40.2525 85.1003 40.1386 86.2564 40.3605 87.3718C40.5824 88.4872 41.13 89.5117 41.9341 90.3159C42.7383 91.12 43.7628 91.6676 44.8782 91.8895C45.9936 92.1114 47.1498 91.9975 48.2004 91.5623C49.2511 91.1271 50.1491 90.3901 50.781 89.4445C51.4128 88.4989 51.75 87.3872 51.75 86.25C51.75 84.725 51.1442 83.2625 50.0659 82.1841C48.9875 81.1058 47.525 80.5 46 80.5ZM78.545 13.455C77.7367 12.6425 76.7053 12.0883 75.5817 11.8626C74.4581 11.6368 73.2927 11.7497 72.2333 12.187C71.1739 12.6242 70.2682 13.3661 69.6308 14.3186C68.9935 15.2711 68.6533 16.3914 68.6533 17.5375C68.6533 18.6836 68.9935 19.8039 69.6308 20.7564C70.2682 21.7089 71.1739 22.4508 72.2333 22.888C73.2927 23.3253 74.4581 23.4382 75.5817 23.2124C76.7053 22.9867 77.7367 22.4325 78.545 21.62C79.6149 20.5305 80.2144 19.0645 80.2144 17.5375C80.2144 16.0105 79.6149 14.5445 78.545 13.455ZM21.62 70.38C20.8117 69.5675 19.7803 69.0133 18.6567 68.7876C17.5331 68.5618 16.3677 68.6747 15.3083 69.112C14.2489 69.5492 13.3432 70.2911 12.7058 71.2436C12.0685 72.1961 11.7283 73.3164 11.7283 74.4625C11.7283 75.6086 12.0685 76.7289 12.7058 77.6814C13.3432 78.6339 14.2489 79.3758 15.3083 79.813C16.3677 80.2503 17.5331 80.3632 18.6567 80.1374C19.7803 79.9117 20.8117 79.3575 21.62 78.545C22.6899 77.4555 23.2894 75.9895 23.2894 74.4625C23.2894 72.9355 22.6899 71.4695 21.62 70.38ZM92 46C92 44.8628 91.6628 43.7511 91.0309 42.8055C90.3991 41.8599 89.5011 41.1229 88.4504 40.6877C87.3997 40.2525 86.2436 40.1386 85.1282 40.3605C84.0128 40.5823 82.9883 41.13 82.1841 41.9341C81.38 42.7383 80.8323 43.7628 80.6105 44.8782C80.3886 45.9936 80.5025 47.1498 80.9377 48.2004C81.3729 49.2511 82.1099 50.1491 83.0555 50.781C84.0011 51.4128 85.1128 51.75 86.25 51.75C87.775 51.75 89.2375 51.1442 90.3159 50.0659C91.3942 48.9875 92 47.525 92 46ZM11.5 46C11.5 44.8628 11.1628 43.7511 10.531 42.8055C9.89913 41.8599 9.00111 41.1229 7.95043 40.6877C6.89976 40.2525 5.74362 40.1386 4.62823 40.3605C3.51284 40.5823 2.48829 41.13 1.68414 41.9341C0.879987 42.7383 0.332352 43.7628 0.110487 44.8782C-0.111378 45.9936 0.00249139 47.1498 0.437695 48.2004C0.872899 49.2511 1.60989 50.1491 2.55547 50.781C3.50106 51.4128 4.61276 51.75 5.75 51.75C7.275 51.75 8.73753 51.1442 9.81587 50.0659C10.8942 48.9875 11.5 47.525 11.5 46ZM78.545 78.545C79.3575 77.7367 79.9117 76.7053 80.1374 75.5817C80.3632 74.4581 80.2503 73.2927 79.813 72.2333C79.3758 71.1739 78.6339 70.2682 77.6814 69.6308C76.7289 68.9935 75.6086 68.6533 74.4625 68.6533C73.3164 68.6533 72.1961 68.9935 71.2436 69.6308C70.2911 70.2682 69.5492 71.1739 69.112 72.2333C68.6747 73.2927 68.5618 74.4581 68.7876 75.5817C69.0133 76.7053 69.5675 77.7367 70.38 78.545C71.4695 79.6149 72.9355 80.2144 74.4625 80.2144C75.9895 80.2144 77.4555 79.6149 78.545 78.545ZM21.62 21.62C22.4325 20.8117 22.9867 19.7803 23.2124 18.6567C23.4382 17.5331 23.3253 16.3677 22.8881 15.3083C22.4508 14.2489 21.7089 13.3432 20.7564 12.7058C19.8039 12.0685 18.6836 11.7283 17.5375 11.7283C16.3914 11.7283 15.2711 12.0685 14.3186 12.7058C13.3661 13.3432 12.6242 14.2489 12.187 15.3083C11.7497 16.3677 11.6368 17.5331 11.8626 18.6567C12.0883 19.7803 12.6425 20.8117 13.455 21.62C14.5445 22.6899 16.0105 23.2894 17.5375 23.2894C19.0645 23.2894 20.5305 22.6899 21.62 21.62Z" fill="white" fill-opacity="0.1"/>
</g>
<defs>
<clipPath id="clip0_214_360">
<rect width="92" height="92" fill="white"/>
</clipPath>
</defs>
</svg>
