<svg width="93" height="93" viewBox="0 0 93 93" fill="none" xmlns="http://www.w3.org/2000/svg">
<g clip-path="url(#clip0_214_363)">
<path d="M90.4037 49.0187V52.8937C90.422 53.8003 90.1218 54.6845 89.5554 55.3926C88.989 56.1006 88.1922 56.5876 87.3037 56.7687L82.4988 57.7375C81.5837 61.5938 80.0388 65.2728 77.9263 68.6262L80.6775 72.7337C81.1453 73.4654 81.3537 74.333 81.2694 75.1973C81.1851 76.0616 80.8129 76.8725 80.2125 77.5L74.9037 82.8087C74.2684 83.4375 73.4352 83.8272 72.5454 83.912C71.6556 83.9967 70.7638 83.7713 70.0212 83.2737L65.875 80.4837C62.5461 82.6603 58.8799 84.2709 55.025 85.25L54.25 89.8612C54.0688 90.7497 53.5819 91.5465 52.8738 92.1129C52.1658 92.6793 51.2815 92.9795 50.375 92.9612H42.625C41.7185 92.9795 40.8342 92.6793 40.1262 92.1129C39.4181 91.5465 38.9312 90.7497 38.75 89.8612L37.975 85.25C34.1201 84.2709 30.4539 82.6603 27.125 80.4837L23.0175 83.235C22.2749 83.7325 21.3831 83.958 20.4933 83.8732C19.6035 83.7885 18.7703 83.3987 18.135 82.77L12.7875 77.5C12.1588 76.8647 11.769 76.0315 11.6843 75.1417C11.5995 74.2519 11.825 73.3601 12.3225 72.6175L15.0738 68.51C12.9612 65.1565 11.4163 61.4776 10.5013 57.6212L5.69625 56.6525C4.80781 56.4713 4.01102 55.9844 3.4446 55.2763C2.87817 54.5683 2.57797 53.684 2.59625 52.7775V48.9025H28.0163C28.0163 53.8047 29.9636 58.5061 33.43 61.9725C36.8964 65.4389 41.5978 67.3862 46.5 67.3862C51.4022 67.3862 56.1036 65.4389 59.57 61.9725C63.0364 58.5061 64.9837 53.8047 64.9837 48.9025L90.4037 49.0187ZM66.5338 14.7637C66.5338 17.148 67.4809 19.4347 69.1669 21.1206C70.8528 22.8066 73.1395 23.7537 75.5238 23.7537C77.908 23.7537 80.1947 22.8066 81.8806 21.1206C83.5666 19.4347 84.5137 17.148 84.5137 14.7637C84.5137 12.3795 83.5666 10.0928 81.8806 8.40686C80.1947 6.72091 77.908 5.77375 75.5238 5.77375C73.1395 5.77375 70.8528 6.72091 69.1669 8.40686C67.4809 10.0928 66.5338 12.3795 66.5338 14.7637ZM8.525 14.7637C8.525 17.148 9.47216 19.4347 11.1581 21.1206C12.8441 22.8066 15.1307 23.7537 17.515 23.7537C19.8993 23.7537 22.1859 22.8066 23.8719 21.1206C25.5578 19.4347 26.505 17.148 26.505 14.7637C26.505 12.3795 25.5578 10.0928 23.8719 8.40686C22.1859 6.72091 19.8993 5.77375 17.515 5.77375C15.1307 5.77375 12.8441 6.72091 11.1581 8.40686C9.47216 10.0928 8.525 12.3795 8.525 14.7637ZM26.35 34.1C24.9596 33.2159 23.4621 32.5127 21.8938 32.0075C17.7393 30.84 13.3117 31.1165 9.33478 32.7917C5.35786 34.467 2.06692 37.4418 0 41.23H22.2038C23.3521 38.7249 24.7407 36.337 26.35 34.1ZM70.4475 41.3462H93C90.9436 37.5359 87.6514 34.5391 83.6652 32.8488C79.6789 31.1586 75.236 30.8755 71.0675 32.0462C69.4704 32.5575 67.9464 33.2739 66.5338 34.1775C68.055 36.4422 69.3651 38.8419 70.4475 41.3462ZM66.1462 41.3462C64.5991 37.3288 61.9193 33.8467 58.432 31.3223C54.9447 28.798 50.7997 27.3399 46.5 27.125C42.1648 27.316 37.9792 28.7665 34.4555 31.2992C30.9318 33.8318 28.2228 37.3367 26.66 41.385L66.1462 41.3462ZM34.8363 11.2762C34.8363 14.2669 36.0243 17.1351 38.139 19.2498C40.2537 21.3645 43.1218 22.5525 46.1125 22.5525C49.1031 22.5525 51.9713 21.3645 54.086 19.2498C56.2007 17.1351 57.3888 14.2669 57.3888 11.2762C57.3888 8.2856 56.2007 5.41744 54.086 3.30274C51.9713 1.18803 49.1031 0 46.1125 0C43.1218 0 40.2537 1.18803 38.139 3.30274C36.0243 5.41744 34.8363 8.2856 34.8363 11.2762Z" fill="white" fill-opacity="0.1"/>
</g>
<defs>
<clipPath id="clip0_214_363">
<rect width="93" height="93" fill="white"/>
</clipPath>
</defs>
</svg>
