<svg width="32" height="32" viewBox="0 0 32 32"  xmlns="http://www.w3.org/2000/svg">
<g clip-path="url(#clip0_242_8)">
<path d="M1.09412e-05 10.6875C0.0882675 10.7359 0.17644 10.7844 0.264578 10.8329C0.338244 10.8734 0.338244 10.8734 0.413397 10.9147C0.653496 11.052 0.88055 11.2071 1.10865 11.3633C1.15999 11.3981 1.21133 11.4329 1.26422 11.4688C1.3749 11.5439 1.48551 11.6191 1.59607 11.6944C1.89673 11.8991 2.19797 12.1029 2.49928 12.3066C2.56153 12.3487 2.62378 12.3908 2.68791 12.4342C3.33009 12.8677 3.97723 13.2936 4.62501 13.7188C5.53562 14.3166 6.4417 14.9206 7.34376 15.5312C8.36877 16.2251 9.39912 16.9103 10.4341 17.5891C10.9851 17.9507 11.5345 18.3142 12.0798 18.6841C12.1822 18.7533 12.2846 18.8225 12.387 18.8916C12.5754 19.019 12.7631 19.1472 12.9506 19.276C14.1479 20.0901 15.4329 20.5158 16.8923 20.2737C17.9417 20.0554 18.8236 19.4523 19.6916 18.8539C19.9859 18.6511 20.2816 18.4503 20.5772 18.2493C20.6381 18.2078 20.699 18.1662 20.7617 18.1235C21.3989 17.6897 22.0429 17.2664 22.6875 16.8438C23.5982 16.246 24.5042 15.6419 25.4063 15.0312C26.4264 14.3407 27.4521 13.6593 28.4817 12.983C29.0599 12.603 29.6373 12.2218 30.2127 11.8374C30.2985 11.7801 30.2985 11.7801 30.386 11.7216C30.6593 11.539 30.9324 11.3561 31.2053 11.173C31.3018 11.1084 31.3983 11.0438 31.4949 10.9792C31.5613 10.9346 31.5613 10.9346 31.629 10.889C31.9304 10.6875 31.9304 10.6875 32 10.6875C32.0071 12.5846 32.0127 14.4817 32.016 16.3787C32.0164 16.603 32.0168 16.8273 32.0172 17.0516C32.0173 17.0962 32.0173 17.1409 32.0174 17.1869C32.0188 17.9085 32.0212 18.6302 32.0241 19.3519C32.027 20.0931 32.0288 20.8343 32.0294 21.5756C32.0298 21.9916 32.0308 22.4076 32.0331 22.8237C32.0352 23.2156 32.0358 23.6076 32.0354 23.9996C32.0354 24.1431 32.0361 24.2865 32.0373 24.43C32.0461 25.5399 31.9344 26.3326 31.1524 27.1719C30.5529 27.7252 29.9007 28.0152 29.0796 28.0161C29.0104 28.0164 29.0104 28.0164 28.9398 28.0167C28.7859 28.0173 28.632 28.017 28.4781 28.0167C28.3663 28.0169 28.2546 28.0172 28.1429 28.0176C27.8363 28.0183 27.5297 28.0183 27.2232 28.0182C26.8923 28.0181 26.5615 28.0188 26.2307 28.0194C25.5827 28.0205 24.9347 28.0208 24.2867 28.0209C23.7599 28.0209 23.2331 28.0212 22.7063 28.0216C21.2123 28.0227 19.7184 28.0233 18.2244 28.0232C18.1036 28.0232 18.1036 28.0232 17.9804 28.0232C17.8997 28.0232 17.8191 28.0232 17.7361 28.0231C16.4296 28.0231 15.1231 28.0243 13.8167 28.0261C12.4748 28.0279 11.133 28.0287 9.79114 28.0286C9.03795 28.0286 8.28476 28.0289 7.53157 28.0303C6.89025 28.0314 6.24894 28.0317 5.60762 28.0308C5.28056 28.0304 4.95351 28.0304 4.62644 28.0315C4.32668 28.0325 4.02695 28.0323 3.72719 28.0312C3.6191 28.031 3.511 28.0312 3.40291 28.0319C2.43803 28.0378 1.63267 27.8921 0.894542 27.2227C0.846847 27.1698 0.799152 27.117 0.750011 27.0625C0.71996 27.032 0.689908 27.0014 0.658947 26.97C0.271593 26.5571 -0.00797875 25.9957 -0.00767955 25.4225C-0.00780399 25.3697 -0.00792843 25.317 -0.00805664 25.2626C-0.00787459 25.205 -0.00769254 25.1474 -0.00750497 25.088C-0.00755837 25.0265 -0.00761177 24.965 -0.00766679 24.9017C-0.00776995 24.6952 -0.00742555 24.4887 -0.0070844 24.2822C-0.00706677 24.1343 -0.00707665 23.9865 -0.00711205 23.8387C-0.00713002 23.4369 -0.00676193 23.035 -0.00632618 22.6332C-0.00594586 22.256 -0.00591227 21.8787 -0.00584794 21.5015C-0.00571115 20.7543 -0.0052952 20.0071 -0.00470402 19.2599C-0.00413035 18.5341 -0.00368794 17.8083 -0.00342229 17.0825C-0.00340587 17.0377 -0.00338945 16.993 -0.00337253 16.9469C-0.00329096 16.7224 -0.00321198 16.498 -0.00313428 16.2736C-0.00248635 14.4115 -0.00138087 12.5495 1.09412e-05 10.6875Z"/>
<path d="M2.92038 3.98391C2.96651 3.98369 3.01264 3.98348 3.06017 3.98325C3.2141 3.98267 3.36801 3.98297 3.52194 3.98328C3.63367 3.98305 3.74541 3.98276 3.85715 3.98242C4.16372 3.98166 4.47029 3.98167 4.77686 3.98182C5.10769 3.98185 5.43852 3.98116 5.76935 3.98056C6.41734 3.97952 7.06534 3.97918 7.71333 3.97911C8.24014 3.97905 8.76694 3.97879 9.29375 3.9784C10.7877 3.9773 12.2817 3.97672 13.7756 3.97682C13.8964 3.97682 13.8964 3.97682 14.0196 3.97683C14.1003 3.97684 14.1809 3.97684 14.264 3.97685C15.5704 3.9769 16.8769 3.9757 18.1834 3.97394C19.5252 3.97214 20.867 3.97128 22.2089 3.97139C22.9621 3.97143 23.7153 3.97109 24.4684 3.96974C25.1098 3.9686 25.7511 3.96833 26.3924 3.96918C26.7195 3.96959 27.0465 3.96959 27.3736 3.96851C27.6733 3.96752 27.9731 3.96771 28.2728 3.96879C28.3809 3.96899 28.489 3.96876 28.5971 3.96806C29.562 3.96224 30.3673 4.10787 31.1055 4.77734C31.1532 4.83019 31.2009 4.88304 31.25 4.93749C31.2951 4.98221 31.2951 4.98221 31.3411 5.02783C31.9347 5.65005 32.0292 6.43016 32.0173 7.24731C31.9879 8.04246 31.5647 8.64432 31.0134 9.18703C30.798 9.38228 30.5637 9.53792 30.3191 9.69409C30.2661 9.72865 30.2131 9.76322 30.1585 9.79883C30.0445 9.87317 29.9303 9.94723 29.8159 10.0211C29.5056 10.2214 29.1966 10.4237 28.8875 10.6257C28.8238 10.6672 28.7602 10.7088 28.6946 10.7515C28.0521 11.1712 27.4164 11.6006 26.7813 12.0312C25.8225 12.6806 24.8583 13.3212 23.8904 13.9568C23.0294 14.5223 22.1734 15.0946 21.3203 15.6719C20.4955 16.2297 19.6696 16.7858 18.8389 17.3348C18.7369 17.4022 18.635 17.4698 18.5332 17.5375C17.4831 18.2351 16.588 18.7394 15.2898 18.5283C14.9032 18.4263 14.5746 18.2557 14.2393 18.0417C14.1963 18.0146 14.1532 17.9874 14.1089 17.9594C13.6063 17.6394 13.1137 17.3045 12.6209 16.9695C11.6276 16.2944 10.629 15.6278 9.62501 14.9687C8.65842 14.3341 7.69737 13.6919 6.73987 13.0436C5.93226 12.497 5.12084 11.9566 4.30586 11.421C3.80777 11.0936 3.31008 10.7656 2.81251 10.4375C2.76517 10.4063 2.71783 10.3751 2.66906 10.3429C2.41593 10.176 2.16326 10.0084 1.91137 9.83954C1.80591 9.76904 1.70004 9.69918 1.59414 9.62936C1.03263 9.25106 0.538619 8.85417 0.250007 8.23046C0.215202 8.15723 0.180398 8.08399 0.144538 8.00854C-0.123953 7.36688 -0.104866 6.50767 0.132819 5.85937C0.497008 5.05692 1.12348 4.45971 1.93751 4.12499C2.27505 4.02847 2.56683 3.98429 2.92038 3.98391Z"/>
</g>
<defs>
<clipPath id="clip0_242_8">
<rect width="32" height="32"/>
</clipPath>
</defs>
</svg>
