<svg width="28" height="31" viewBox="0 0 28 31" xmlns="http://www.w3.org/2000/svg">
<path d="M4.8866 0.0100123C6.20806 0.0393789 7.43294 0.675289 8.57995 1.27552C8.63041 1.3016 8.68088 1.32768 8.73288 1.35454C9.0237 1.50895 9.25269 1.68029 9.5024 1.89698C9.84836 2.1263 10.1088 2.07674 10.4964 1.99997C10.7937 1.93176 11.0892 1.85704 11.3848 1.78176C13.6302 1.25235 16.068 1.34947 18.3272 1.72508C18.3981 1.73676 18.469 1.74844 18.542 1.76047C18.8394 1.81175 19.129 1.86583 19.4166 1.95813C19.8803 2.10068 19.8803 2.10068 20.3366 1.981C20.5032 1.8775 20.6601 1.76262 20.8176 1.64575C22.0115 0.762535 23.7082 -0.0014507 25.2149 0.0281933C25.2999 0.029466 25.3849 0.0307386 25.4724 0.0320499C25.5353 0.0336861 25.5982 0.0353224 25.663 0.0370083C25.8588 0.429972 25.992 0.815637 26.0978 1.24026C26.1154 1.31007 26.1154 1.31007 26.1333 1.3813C26.4401 2.65803 26.3646 4.00372 26.0254 5.26432C25.9944 5.47328 25.9944 5.47328 26.1261 5.64336C26.1806 5.70154 26.235 5.75972 26.2911 5.81966C27.5317 7.24807 27.9983 9.07854 27.9999 10.9368C27.9999 10.9886 27.9999 11.0404 28 11.0938C27.9962 13.7426 27.352 16.2401 25.4609 18.1739C25.1115 18.5227 24.7456 18.8136 24.3276 19.0775C24.278 19.1117 24.2283 19.146 24.1772 19.1813C23.5758 19.5769 22.8913 19.8186 22.2191 20.0647C22.1707 20.0825 22.1223 20.1002 22.0724 20.1185C21.0577 20.4784 19.9754 20.6075 18.9159 20.7699C18.9492 20.8221 18.9825 20.8744 19.0168 20.9282C19.0608 20.9972 19.1047 21.0663 19.15 21.1374C19.1935 21.2056 19.237 21.2738 19.2818 21.3441C20.0067 22.5031 20.0817 23.6845 20.0783 25.0199C20.079 25.1675 20.0798 25.3152 20.0808 25.4628C20.083 25.8476 20.0838 26.2323 20.0841 26.6171C20.0847 27.2357 20.0872 27.8543 20.0905 28.4729C20.0914 28.6881 20.0914 28.9033 20.0912 29.1185C20.0917 29.25 20.0922 29.3816 20.0927 29.5131C20.0924 29.5726 20.0921 29.6321 20.0918 29.6934C20.0939 29.9914 20.1026 30.2348 20.2512 30.5017C20.5921 30.7326 20.9771 30.7871 21.3757 30.8543C21.3757 30.8776 21.3757 30.9009 21.3757 30.9248C20.547 30.9375 19.7183 30.9492 18.8895 30.9601C18.7944 30.9614 18.7944 30.9614 18.6974 30.9626C16.3762 30.993 14.0553 31.0016 11.7339 30.9998C11.6565 30.9997 11.5791 30.9996 11.4994 30.9996C10.5512 30.9988 9.60289 30.9974 8.65462 30.9954C8.65462 30.9721 8.65462 30.9488 8.65462 30.9248C8.70635 30.9179 8.75808 30.911 8.81138 30.9039C9.35159 30.8257 9.35159 30.8257 9.77914 30.5017C9.84893 30.2917 9.85794 30.1551 9.8574 29.936C9.8574 29.864 9.85739 29.792 9.85738 29.7178C9.85702 29.6403 9.85666 29.5627 9.85629 29.4828C9.85619 29.4032 9.85609 29.3237 9.85598 29.2418C9.85559 28.9874 9.85471 28.733 9.85381 28.4787C9.85346 28.3064 9.85314 28.1341 9.85285 27.9618C9.85208 27.539 9.8509 27.1163 9.84942 26.6936C9.79483 26.7036 9.74024 26.7135 9.68399 26.7237C9.10445 26.8221 8.5435 26.8595 7.95619 26.8567C7.8698 26.8564 7.78342 26.856 7.69441 26.8557C6.29521 26.8375 5.0286 26.4272 3.99841 25.4419C3.49496 24.9097 3.18209 24.3339 2.89586 23.6657C2.44238 22.6074 1.80001 21.7161 0.853272 21.052C0.739932 20.9676 0.627193 20.8824 0.515038 20.7964C0.438256 20.7383 0.438256 20.7383 0.359923 20.679C0.216433 20.5546 0.111741 20.4366 0.00988346 20.2763C-0.00329449 20.0824 -0.00329449 20.0824 0.00988346 19.9237C0.463624 19.6115 1.00833 19.653 1.53358 19.7452C2.70143 20.0597 3.63305 20.9144 4.25758 21.9291C4.86082 22.9016 5.69205 23.5736 6.81201 23.8437C7.0861 23.8949 7.35733 23.8998 7.63553 23.8993C7.69647 23.8993 7.75741 23.8992 7.82021 23.8992C8.4109 23.8889 8.93477 23.7645 9.49801 23.5907C9.66185 23.5432 9.82593 23.4965 9.98999 23.4497C9.99098 23.4035 9.99198 23.3573 9.99301 23.3098C10.0405 22.3987 10.4586 21.4801 11.1145 20.8405C11.0234 20.8246 11.0234 20.8246 10.9304 20.8083C8.44262 20.3698 6.12458 19.8151 4.29711 17.9491C4.24456 17.8963 4.19202 17.8435 4.13788 17.7891C2.32201 15.8559 1.91757 13.0254 1.96022 10.474C2.0165 8.69188 2.67224 6.83438 3.93636 5.54474C4.03876 5.39054 4.03876 5.39054 3.97755 5.17038C3.94964 5.08647 3.92174 5.00257 3.89299 4.91612C3.40556 3.42118 3.56866 1.53683 4.22683 0.107528C4.38107 -0.0472391 4.67929 0.0108198 4.8866 0.0100123Z"/>
</svg>
