<svg width="32" height="32" viewBox="0 0 32 32" xmlns="http://www.w3.org/2000/svg">
<g clip-path="url(#clip0_240_2)">
<path d="M16.9112 0.65503C17.1599 0.811105 17.3652 1.00729 17.5764 1.21021C17.7405 1.36591 17.9092 1.50757 18.086 1.64844C18.3857 1.89014 18.6669 2.14686 18.9477 2.40988C19.1569 2.60471 19.3706 2.78973 19.5938 2.96875C19.8913 3.2075 20.1696 3.46184 20.4478 3.72241C20.657 3.91723 20.8707 4.10224 21.0938 4.28125C21.3913 4.52 21.6696 4.77434 21.9478 5.03491C22.157 5.22973 22.3707 5.41474 22.5938 5.59375C22.8913 5.8325 23.1696 6.08684 23.4478 6.34741C23.657 6.54223 23.8707 6.72724 24.0938 6.90625C24.3913 7.145 24.6696 7.39934 24.9478 7.65991C25.157 7.85473 25.3707 8.03974 25.5938 8.21875C25.8913 8.4575 26.1696 8.71184 26.4478 8.97241C26.657 9.16723 26.8707 9.35224 27.0938 9.53125C27.3913 9.77 27.6696 10.0243 27.9478 10.2849C28.157 10.4797 28.3707 10.6647 28.5938 10.8438C28.8913 11.0825 29.1696 11.3368 29.4478 11.5974C29.657 11.7922 29.8707 11.9772 30.0938 12.1563C30.3948 12.3979 30.6784 12.6541 30.9597 12.9182C31.1465 13.0933 31.3365 13.2601 31.5352 13.4219C31.8363 13.6886 31.9752 13.9273 32.0257 14.3293C32.0557 15.0397 31.8517 15.4492 31.3985 15.9805C30.9843 16.4176 30.524 16.7835 29.9102 16.8281C29.5697 16.8042 29.3964 16.6456 29.1465 16.4302C29.1073 16.3964 29.0681 16.3627 29.0277 16.3279C28.9831 16.2893 28.9831 16.2893 28.9375 16.25C28.9373 16.3203 28.9371 16.3907 28.9369 16.4632C28.9318 18.1752 28.9261 19.8872 28.9196 21.5992C28.9164 22.4271 28.9135 23.255 28.9112 24.0829C28.9091 24.8046 28.9066 25.5262 28.9036 26.2479C28.902 26.6299 28.9007 27.012 28.8998 27.3941C28.899 27.7538 28.8976 28.1136 28.8958 28.4734C28.8952 28.6052 28.8949 28.7371 28.8948 28.869C28.8945 29.0495 28.8936 29.2299 28.8924 29.4104C28.8925 29.4622 28.8927 29.5141 28.8928 29.5675C28.8871 30.1651 28.7793 30.6685 28.375 31.125C28.0782 31.3607 27.7956 31.5071 27.4121 31.5092C27.3558 31.5096 27.2994 31.5101 27.2414 31.5106C27.1797 31.5107 27.1181 31.5109 27.0545 31.5111C26.9895 31.5115 26.9244 31.5119 26.8574 31.5123C26.6417 31.5135 26.4259 31.5143 26.2102 31.5149C26.0997 31.5153 26.0997 31.5153 25.987 31.5157C25.597 31.517 25.2069 31.5179 24.8169 31.5184C24.4143 31.5191 24.0117 31.5213 23.6091 31.5238C23.2994 31.5254 22.9896 31.5259 22.6799 31.5262C22.5315 31.5265 22.3831 31.5272 22.2347 31.5283C22.0268 31.5299 21.8189 31.5298 21.6109 31.5294C21.5194 31.5306 21.5194 31.5306 21.426 31.5318C20.9514 31.5282 20.6324 31.4094 20.2656 31.1094C19.8958 30.6573 19.8045 30.2191 19.805 29.6401C19.8049 29.5788 19.8049 29.5788 19.8048 29.5162C19.8047 29.38 19.8051 29.2439 19.8054 29.1077C19.8054 29.0097 19.8054 28.9118 19.8054 28.8138C19.8054 28.5485 19.8057 28.2831 19.8062 28.0178C19.8066 27.7403 19.8066 27.4628 19.8067 27.1853C19.8069 26.66 19.8074 26.1348 19.808 25.6095C19.8088 24.8995 19.8092 24.1896 19.8096 23.4796C19.8101 22.3614 19.8114 21.2432 19.8125 20.125C17.4819 20.125 15.1513 20.125 12.75 20.125C12.7555 21.2172 12.7555 21.2172 12.761 22.3315C12.7626 22.793 12.7641 23.2544 12.7653 23.7158C12.7671 24.4481 12.7693 25.1805 12.7736 25.9128C12.7767 26.4462 12.7787 26.9795 12.7794 27.5129C12.7798 27.7952 12.7808 28.0775 12.7831 28.3597C12.7852 28.6258 12.7858 28.8918 12.7854 29.1578C12.7855 29.2551 12.7861 29.3524 12.7873 29.4497C12.7945 30.0598 12.7606 30.5879 12.3278 31.0562C11.9128 31.4502 11.4898 31.528 10.9376 31.5262C10.8763 31.5268 10.8151 31.5273 10.752 31.5278C10.5504 31.5293 10.3488 31.5294 10.1472 31.5293C10.0064 31.5297 9.86562 31.5302 9.72482 31.5307C9.42993 31.5316 9.13505 31.5317 8.84015 31.5313C8.46334 31.5309 8.08658 31.5329 7.70978 31.5354C7.419 31.537 7.12823 31.5372 6.83744 31.5369C6.69858 31.5371 6.55971 31.5377 6.42085 31.5388C6.22611 31.5402 6.03148 31.5395 5.83674 31.5385C5.78006 31.5393 5.72338 31.5401 5.66499 31.541C5.19969 31.5349 4.79065 31.3958 4.44238 31.0778C4.0602 30.6693 3.97209 30.2582 3.9751 29.7165C3.97469 29.6577 3.97427 29.5989 3.97384 29.5383C3.97268 29.3418 3.97284 29.1454 3.973 28.949C3.97243 28.8079 3.97179 28.6668 3.97107 28.5258C3.96934 28.1432 3.96876 27.7606 3.96839 27.378C3.9678 26.9781 3.96617 26.5781 3.96464 26.1781C3.96222 25.5069 3.96045 24.8357 3.95917 24.1645C3.95786 23.4733 3.95615 22.7821 3.95392 22.0909C3.95379 22.0483 3.95365 22.0057 3.95351 21.9617C3.95282 21.7478 3.95212 21.5339 3.95141 21.32C3.94559 19.5467 3.94113 17.7733 3.93752 16C3.908 16.0297 3.87848 16.0595 3.84807 16.0901C3.80907 16.1293 3.77006 16.1684 3.72988 16.2088C3.69134 16.2476 3.65279 16.2863 3.61308 16.3263C3.12726 16.8043 2.67972 17.1853 1.98049 17.2188C1.32951 17.1987 0.923223 16.9095 0.481726 16.4509C0.0554949 15.9864 -0.0438601 15.6577 -0.0241485 15.0215C0.0457826 14.4168 0.458664 14.0183 0.902365 13.6401C1.11396 13.455 1.31847 13.2627 1.52346 13.0703C1.83522 12.7781 2.14921 12.4889 2.46779 12.2041C2.68956 12.0044 2.90851 11.8016 3.1276 11.599C3.44908 11.3016 3.7718 11.0057 4.09478 10.7099C4.25075 10.5671 4.40663 10.4242 4.56252 10.2813C4.62502 10.224 4.68752 10.1667 4.75002 10.1094C4.78096 10.081 4.8119 10.0527 4.84377 10.0234C7.68752 7.41667 10.5313 4.8099 13.375 2.20313C13.4214 2.16055 13.4214 2.16055 13.4688 2.11711C13.5311 2.06002 13.5935 2.00299 13.6559 1.946C13.8156 1.80002 13.9743 1.65318 14.1316 1.50464C14.9272 0.756989 15.784 0.133811 16.9112 0.65503Z"/>
</g>
<defs>
<clipPath id="clip0_240_2">
<rect width="32" height="32"/>
</clipPath>
</defs>
</svg>
