<svg width="92" height="92" viewBox="0 0 92 92" fill="none" xmlns="http://www.w3.org/2000/svg">
<g clip-path="url(#clip0_214_350)">
<path d="M15.3334 77.1803H36.4167M15.3334 89.125H36.4167M49.8334 89.125V77.1803H76.6667V89.125M76.6667 32.1387H15.3334V64.722H76.6667V32.1387Z" stroke="white" stroke-opacity="0.1" stroke-width="7" stroke-linecap="round" stroke-linejoin="round"/>
<path d="M41 57L49.944 49.5233C50.5378 49.0271 51.2679 48.634 52.0837 48.3713C52.8996 48.1085 53.7816 47.9825 54.6687 48.0019C55.5557 48.0214 56.4266 48.1858 57.2207 48.4837C58.0149 48.7817 58.7134 49.2061 59.2678 49.7275L67 57" stroke="white" stroke-opacity="0.1" stroke-width="7" stroke-linecap="round" stroke-linejoin="round"/>
<path d="M28.75 47.472C28.2417 47.472 27.7542 47.2701 27.3948 46.9106C27.0353 46.5512 26.8334 46.0637 26.8334 45.5553C26.8334 45.047 27.0353 44.5595 27.3948 44.2001C27.7542 43.8406 28.2417 43.6387 28.75 43.6387M28.75 47.472C29.2584 47.472 29.7459 47.2701 30.1053 46.9106C30.4648 46.5512 30.6667 46.0637 30.6667 45.5553C30.6667 45.047 30.4648 44.5595 30.1053 44.2001C29.7459 43.8406 29.2584 43.6387 28.75 43.6387" stroke="white" stroke-opacity="0.1" stroke-width="7"/>
<path d="M2.875 89.125V10.5417C2.875 8.50834 3.68274 6.55829 5.12051 5.12051C6.55829 3.68274 8.50834 2.875 10.5417 2.875H81.4583C83.4917 2.875 85.4417 3.68274 86.8795 5.12051C88.3173 6.55829 89.125 8.50834 89.125 10.5417V89.125M2.94783 19.0287H89.079M19.481 2.875V19.0287M36.0908 2.875V19.0287" stroke="white" stroke-opacity="0.1" stroke-width="7" stroke-linecap="round" stroke-linejoin="round"/>
</g>
<defs>
<clipPath id="clip0_214_350">
<rect width="92" height="92" fill="white"/>
</clipPath>
</defs>
</svg>
