<svg width="80" height="88" viewBox="0 0 80 88" fill="none" xmlns="http://www.w3.org/2000/svg">
<path d="M45.375 0H15.125C11.1136 0 7.2665 1.59352 4.43001 4.43001C1.59352 7.2665 0 11.1136 0 15.125V67.375C0 71.3864 1.59352 75.2335 4.43001 78.07C7.2665 80.9065 11.1136 82.5 15.125 82.5H26.125V74.25H15.125C13.3016 74.25 11.553 73.5257 10.2636 72.2364C8.97433 70.9471 8.25 69.1984 8.25 67.375V15.125C8.25 13.3016 8.97433 11.553 10.2636 10.2636C11.553 8.97433 13.3016 8.25 15.125 8.25H18.5625L20.8587 12.8425C21.2007 13.5274 21.7265 14.1037 22.3773 14.5068C23.0281 14.9099 23.7782 15.124 24.5437 15.125H35.9425C36.708 15.124 37.4582 14.9099 38.109 14.5068C38.7598 14.1037 39.2856 13.5274 39.6275 12.8425L41.9375 8.25H45.375C47.1984 8.25 48.947 8.97433 50.2364 10.2636C51.5257 11.553 52.25 13.3016 52.25 15.125V35.75H60.5V15.125C60.5 11.1136 58.9065 7.2665 56.07 4.43001C53.2335 1.59352 49.3864 0 45.375 0Z" fill="white" fill-opacity="0.1"/>
<path d="M52.25 53.625V45.375H44C41.812 45.375 39.7135 46.2442 38.1664 47.7914C36.6192 49.3385 35.75 51.437 35.75 53.625V79.75C35.75 81.938 36.6192 84.0365 38.1664 85.5836C39.7135 87.1308 41.812 88 44 88H52.25V79.75H44V53.625H52.25Z" fill="white" fill-opacity="0.1"/>
<path d="M63.25 79.75V88H71.5C73.688 88 75.7865 87.1308 77.3336 85.5836C78.8808 84.0365 79.75 81.938 79.75 79.75V53.625C79.75 51.437 78.8808 49.3385 77.3336 47.7914C75.7865 46.2442 73.688 45.375 71.5 45.375H63.25V53.625H71.5V79.75H63.25Z" fill="white" fill-opacity="0.1"/>
</svg>
