<svg width="92" height="92" viewBox="0 0 92 92" fill="none" xmlns="http://www.w3.org/2000/svg">
<g clip-path="url(#clip0_214_315)">
<path d="M46 63.2498C44.9833 63.2498 44.0083 63.6537 43.2894 64.3726C42.5705 65.0915 42.1666 66.0665 42.1666 67.0832V74.7498C42.1666 75.7665 42.5705 76.7415 43.2894 77.4604C44.0083 78.1793 44.9833 78.5832 46 78.5832C47.0166 78.5832 47.9916 78.1793 48.7105 77.4604C49.4294 76.7415 49.8333 75.7665 49.8333 74.7498V67.0832C49.8333 66.0665 49.4294 65.0915 48.7105 64.3726C47.9916 63.6537 47.0166 63.2498 46 63.2498ZM46 28.7498C47.0166 28.7498 47.9916 28.346 48.7105 27.6271C49.4294 26.9082 49.8333 25.9332 49.8333 24.9165V17.2498C49.8333 16.2332 49.4294 15.2582 48.7105 14.5393C47.9916 13.8204 47.0166 13.4165 46 13.4165C44.9833 13.4165 44.0083 13.8204 43.2894 14.5393C42.5705 15.2582 42.1666 16.2332 42.1666 17.2498V24.9165C42.1666 25.9332 42.5705 26.9082 43.2894 27.6271C44.0083 28.346 44.9833 28.7498 46 28.7498ZM24.9166 42.1665H17.25C16.2333 42.1665 15.2583 42.5704 14.5394 43.2893C13.8205 44.0082 13.4166 44.9832 13.4166 45.9998C13.4166 47.0165 13.8205 47.9915 14.5394 48.7104C15.2583 49.4293 16.2333 49.8332 17.25 49.8332H24.9166C25.9333 49.8332 26.9083 49.4293 27.6272 48.7104C28.3461 47.9915 28.75 47.0165 28.75 45.9998C28.75 44.9832 28.3461 44.0082 27.6272 43.2893C26.9083 42.5704 25.9333 42.1665 24.9166 42.1665ZM74.75 42.1665H67.0833C66.0666 42.1665 65.0916 42.5704 64.3727 43.2893C63.6538 44.0082 63.25 44.9832 63.25 45.9998C63.25 47.0165 63.6538 47.9915 64.3727 48.7104C65.0916 49.4293 66.0666 49.8332 67.0833 49.8332H74.75C75.7666 49.8332 76.7416 49.4293 77.4605 48.7104C78.1794 47.9915 78.5833 47.0165 78.5833 45.9998C78.5833 44.9832 78.1794 44.0082 77.4605 43.2893C76.7416 42.5704 75.7666 42.1665 74.75 42.1665ZM53.6666 42.1665H50.7916C50.5375 42.1665 50.2937 42.0655 50.114 41.8858C49.9343 41.7061 49.8333 41.4623 49.8333 41.2082V38.3332C49.8333 37.3165 49.4294 36.3415 48.7105 35.6226C47.9916 34.9037 47.0166 34.4998 46 34.4998C44.9833 34.4998 44.0083 34.9037 43.2894 35.6226C42.5705 36.3415 42.1666 37.3165 42.1666 38.3332V41.2082C42.1666 41.4623 42.0657 41.7061 41.8859 41.8858C41.7062 42.0655 41.4625 42.1665 41.2083 42.1665H38.3333C37.3166 42.1665 36.3416 42.5704 35.6227 43.2893C34.9038 44.0082 34.5 44.9832 34.5 45.9998C34.5 47.0165 34.9038 47.9915 35.6227 48.7104C36.3416 49.4293 37.3166 49.8332 38.3333 49.8332H41.2083C41.4625 49.8332 41.7062 49.9341 41.8859 50.1139C42.0657 50.2936 42.1666 50.5373 42.1666 50.7915V53.6665C42.1666 54.6832 42.5705 55.6582 43.2894 56.3771C44.0083 57.096 44.9833 57.4998 46 57.4998C47.0166 57.4998 47.9916 57.096 48.7105 56.3771C49.4294 55.6582 49.8333 54.6832 49.8333 53.6665V50.7915C49.8333 50.5373 49.9343 50.2936 50.114 50.1139C50.2937 49.9341 50.5375 49.8332 50.7916 49.8332H53.6666C54.6833 49.8332 55.6583 49.4293 56.3772 48.7104C57.0961 47.9915 57.5 47.0165 57.5 45.9998C57.5 44.9832 57.0961 44.0082 56.3772 43.2893C55.6583 42.5704 54.6833 42.1665 53.6666 42.1665Z" fill="white" fill-opacity="0.1"/>
<path d="M84.3333 0H7.66667C5.63334 0 3.68329 0.807736 2.24551 2.24551C0.807736 3.68329 0 5.63334 0 7.66667L0 84.3333C0 86.3667 0.807736 88.3167 2.24551 89.7545C3.68329 91.1923 5.63334 92 7.66667 92H84.3333C86.3667 92 88.3167 91.1923 89.7545 89.7545C91.1923 88.3167 92 86.3667 92 84.3333V7.66667C92 5.63334 91.1923 3.68329 89.7545 2.24551C88.3167 0.807736 86.3667 0 84.3333 0ZM7.66667 82.4167V9.58333C7.66667 9.075 7.8686 8.58749 8.22805 8.22805C8.58749 7.8686 9.075 7.66667 9.58333 7.66667H82.4167C82.925 7.66667 83.4125 7.8686 83.772 8.22805C84.1314 8.58749 84.3333 9.075 84.3333 9.58333V82.4167C84.3333 82.925 84.1314 83.4125 83.772 83.772C83.4125 84.1314 82.925 84.3333 82.4167 84.3333H9.58333C9.075 84.3333 8.58749 84.1314 8.22805 83.772C7.8686 83.4125 7.66667 82.925 7.66667 82.4167Z" fill="white" fill-opacity="0.1"/>
</g>
<defs>
<clipPath id="clip0_214_315">
<rect width="92" height="92" fill="white"/>
</clipPath>
</defs>
</svg>
