<svg width="88" height="88" viewBox="0 0 88 88" fill="none" xmlns="http://www.w3.org/2000/svg">
<path d="M0 9.93548V76.6452C0 79.2802 1.04677 81.8073 2.91004 83.6706C4.7733 85.5339 7.30043 86.5806 9.93548 86.5806H19.871C22.506 86.5806 25.0332 85.5339 26.8964 83.6706C28.7597 81.8073 29.8064 79.2802 29.8064 76.6452V72.3871H41.1613V88H49.6774V72.3871H63.871V88H72.3871V72.3871H88V63.871H72.3871V49.6774H88V41.1613H72.3871V29.8064H76.6452C79.2802 29.8064 81.8073 28.7597 83.6706 26.8964C85.5339 25.0332 86.5806 22.506 86.5806 19.871V9.93548C86.5806 7.30043 85.5339 4.7733 83.6706 2.91004C81.8073 1.04677 79.2802 0 76.6452 0H9.93548C7.30043 0 4.7733 1.04677 2.91004 2.91004C1.04677 4.7733 0 7.30043 0 9.93548ZM63.871 63.871H49.6774V51.0968C49.6774 50.7203 49.827 50.3593 50.0931 50.0931C50.3593 49.827 50.7203 49.6774 51.0968 49.6774H63.871V63.871ZM52.5161 8.51613H76.6452C77.0216 8.51613 77.3826 8.66567 77.6488 8.93185C77.915 9.19803 78.0645 9.55905 78.0645 9.93548V19.871C78.0645 20.2474 77.915 20.6084 77.6488 20.8746C77.3826 21.1408 77.0216 21.2903 76.6452 21.2903H52.5161V8.51613ZM29.8064 8.51613H44V21.2903H29.8064V8.51613ZM29.8064 29.8064H63.871V41.1613H51.0968C48.4617 41.1613 45.9346 42.2081 44.0713 44.0713C42.2081 45.9346 41.1613 48.4617 41.1613 51.0968V63.871H29.8064V29.8064ZM21.2903 63.871V76.6452C21.2903 77.0216 21.1408 77.3826 20.8746 77.6488C20.6084 77.915 20.2474 78.0645 19.871 78.0645H9.93548C9.55905 78.0645 9.19803 77.915 8.93185 77.6488C8.66567 77.3826 8.51613 77.0216 8.51613 76.6452V29.8064H21.2903V63.871ZM21.2903 21.2903H8.51613V9.93548C8.51613 9.55905 8.66567 9.19803 8.93185 8.93185C9.19803 8.66567 9.55905 8.51613 9.93548 8.51613H21.2903V21.2903Z" fill="white" fill-opacity="0.1"/>
</svg>
