<svg width="92" height="92" viewBox="0 0 92 92" fill="none" xmlns="http://www.w3.org/2000/svg">
<g clip-path="url(#clip0_214_357)">
<path d="M86.25 36.4167H79.12C78.3986 33.97 77.4221 31.6059 76.2067 29.3633L81.2283 24.3033C81.7694 23.7751 82.1978 23.1427 82.4877 22.4443C82.7776 21.746 82.9229 20.9961 82.915 20.24C82.9207 19.4842 82.7744 18.735 82.4846 18.0369C82.1948 17.3389 81.7676 16.7062 81.2283 16.1767L75.8233 10.7717C75.2921 10.2339 74.6594 9.80692 73.9619 9.5155C73.2644 9.22409 72.5159 9.07403 71.76 9.07403C71.0041 9.07403 70.2556 9.22409 69.5581 9.5155C68.8606 9.80692 68.2279 10.2339 67.6967 10.7717L62.6367 15.8317C60.4022 14.5895 58.0365 13.5995 55.5833 12.88V5.75C55.5833 4.22501 54.9775 2.76247 53.8992 1.68414C52.8209 0.605802 51.3583 0 49.8333 0L42.1667 0C40.6417 0 39.1791 0.605802 38.1008 1.68414C37.0225 2.76247 36.4167 4.22501 36.4167 5.75V12.88C33.9635 13.5995 31.5978 14.5895 29.3633 15.8317L24.3033 10.7717C23.7721 10.2339 23.1394 9.80692 22.4419 9.5155C21.7443 9.22409 20.9959 9.07403 20.24 9.07403C19.4841 9.07403 18.7357 9.22409 18.0381 9.5155C17.3406 9.80692 16.7079 10.2339 16.1767 10.7717L10.7717 16.1767C10.2324 16.7062 9.80516 17.3389 9.5154 18.0369C9.22564 18.735 9.07927 19.4842 9.085 20.24C9.07256 20.9967 9.21587 21.7479 9.50603 22.447C9.79618 23.146 10.227 23.7779 10.7717 24.3033L15.7933 29.3633C14.5779 31.6059 13.6014 33.97 12.88 36.4167H5.75C4.22501 36.4167 2.76247 37.0225 1.68414 38.1008C0.605802 39.1791 0 40.6417 0 42.1667L0 49.8333C0 51.3583 0.605802 52.8209 1.68414 53.8992C2.76247 54.9775 4.22501 55.5833 5.75 55.5833H12.88C13.5959 58.0319 14.5727 60.3966 15.7933 62.6367L10.7717 67.6967C9.69488 68.7748 9.09006 70.2362 9.09006 71.76C9.09006 73.2838 9.69488 74.7452 10.7717 75.8233L16.1767 81.2283C17.2691 82.2778 18.7252 82.864 20.24 82.864C21.7548 82.864 23.2109 82.2778 24.3033 81.2283L29.3633 76.2067C31.6034 77.4273 33.9681 78.404 36.4167 79.12V86.25C36.4167 87.775 37.0225 89.2375 38.1008 90.3159C39.1791 91.3942 40.6417 92 42.1667 92H49.8333C51.3583 92 52.8209 91.3942 53.8992 90.3159C54.9775 89.2375 55.5833 87.775 55.5833 86.25V79.12C58.0319 78.404 60.3966 77.4273 62.6367 76.2067L67.6967 81.2283C68.2279 81.7661 68.8606 82.1931 69.5581 82.4845C70.2556 82.7759 71.0041 82.926 71.76 82.926C72.5159 82.926 73.2644 82.7759 73.9619 82.4845C74.6594 82.1931 75.2921 81.7661 75.8233 81.2283L81.2283 75.8233C82.3051 74.7452 82.9099 73.2838 82.9099 71.76C82.9099 70.2362 82.3051 68.7748 81.2283 67.6967L76.2067 62.6367C77.4273 60.3966 78.404 58.0319 79.12 55.5833H86.25C87.775 55.5833 89.2375 54.9775 90.3159 53.8992C91.3942 52.8209 92 51.3583 92 49.8333V42.1667C92 40.6417 91.3942 39.1791 90.3159 38.1008C89.2375 37.0225 87.775 36.4167 86.25 36.4167ZM46 65.1667C42.2092 65.1667 38.5035 64.0426 35.3516 61.9365C32.1996 59.8304 29.743 56.837 28.2923 53.3348C26.8416 49.8325 26.4621 45.9787 27.2016 42.2608C27.9412 38.5428 29.7666 35.1276 32.4471 32.4471C35.1276 29.7666 38.5428 27.9412 42.2608 27.2016C45.9787 26.4621 49.8325 26.8416 53.3348 28.2923C56.837 29.743 59.8304 32.1996 61.9365 35.3516C64.0426 38.5035 65.1667 42.2092 65.1667 46C65.1667 51.0833 63.1473 55.9584 59.5529 59.5529C55.9584 63.1473 51.0833 65.1667 46 65.1667Z" fill="white" fill-opacity="0.1"/>
</g>
<defs>
<clipPath id="clip0_214_357">
<rect width="92" height="92" fill="white"/>
</clipPath>
</defs>
</svg>
