<svg width="33" height="27" viewBox="0 0 33 27" xmlns="http://www.w3.org/2000/svg">
<path d="M31.5333 0.259478C31.8954 0.610429 32.0465 1.01108 32.0589 1.51464C32.0594 2.29988 31.9158 3.02977 31.7464 3.79415C31.7156 3.93754 31.6849 4.08096 31.6543 4.2244C31.5715 4.61119 31.4872 4.99765 31.4026 5.38406C31.3219 5.75417 31.2423 6.12453 31.1627 6.49489C31.0154 7.18089 30.8672 7.86673 30.7185 8.55245C30.5039 9.54202 30.2916 10.5321 30.0806 11.5224C30.0649 11.5961 30.0493 11.6697 30.0331 11.7456C29.9698 12.0425 29.9065 12.3395 29.8433 12.6364C29.7327 13.1553 29.6218 13.6741 29.5107 14.1929C29.4948 14.2671 29.4789 14.3414 29.4625 14.4179C29.4301 14.569 29.3977 14.7202 29.3654 14.8713C29.0826 16.1915 28.8014 17.512 28.5215 18.8327C28.4506 19.1671 28.3796 19.5015 28.3085 19.8358C28.2936 19.9061 28.2936 19.9061 28.2783 19.9779C28.2284 20.2131 28.1783 20.4483 28.1283 20.6836C28.0209 21.1888 27.9138 21.694 27.8071 22.1994C27.7344 22.5439 27.6612 22.8884 27.5878 23.2328C27.5454 23.432 27.5032 23.6312 27.4613 23.8305C27.4155 24.0482 27.3691 24.2658 27.3225 24.4834C27.3095 24.546 27.2965 24.6086 27.2831 24.6731C27.1444 25.3149 26.9647 26.1091 26.4207 26.5351C26.0195 26.7748 25.6385 26.8129 25.1839 26.7299C24.5452 26.5556 24.0545 26.1498 23.5333 25.7595C23.4359 25.6877 23.3384 25.616 23.2408 25.5444C23.0412 25.3978 22.8419 25.2508 22.6429 25.1035C22.3579 24.8929 22.0709 24.6852 21.7833 24.4782C21.1462 24.0195 20.5149 23.5529 19.8836 23.0863C19.7343 22.976 19.585 22.8658 19.4356 22.7556C19.3869 22.7196 19.3382 22.6837 19.2881 22.6467C18.9418 22.3916 18.5934 22.1395 18.2442 21.8884C17.8762 21.6237 17.5117 21.3561 17.1583 21.072C16.93 21.1988 16.7554 21.3356 16.5731 21.5222C16.5228 21.5732 16.4724 21.6242 16.4206 21.6767C16.3688 21.7298 16.3171 21.7829 16.2637 21.8376C15.9436 22.1645 15.6231 22.4833 15.2757 22.7811C15.0814 22.9522 14.9018 23.1371 14.7208 23.322C14.4552 23.5907 14.1884 23.8512 13.8988 24.0942C13.7604 24.2173 13.6367 24.3512 13.5098 24.486C13.2211 24.7763 12.8833 25.0622 12.4559 25.0767C12.4057 25.0762 12.3555 25.0756 12.3038 25.075C12.2278 25.0744 12.2278 25.0744 12.1503 25.0737C12.1117 25.0731 12.0731 25.0726 12.0333 25.072C12.0892 23.7863 12.1574 22.5017 12.2397 21.2174C12.2623 20.8636 12.2837 20.5098 12.3026 20.1558C12.3212 19.8091 12.3427 19.4628 12.3661 19.1164C12.3744 18.9856 12.3818 18.8547 12.3881 18.7237C12.4441 17.5802 12.4441 17.5802 12.8359 17.2242C12.942 17.1505 13.0494 17.0789 13.1583 17.0095C13.2639 16.9174 13.3683 16.8238 13.4708 16.7282C14.0958 16.1657 14.0958 16.1657 14.2515 16.0256C14.3574 15.9303 14.4632 15.8349 14.5689 15.7395C14.803 15.5283 15.0374 15.3177 15.2755 15.111C15.5234 14.8952 15.7651 14.6726 16.0069 14.4499C16.2186 14.2554 16.4332 14.065 16.6505 13.8767C16.8219 13.7254 16.9901 13.5706 17.1583 13.4157C17.4057 13.188 17.6553 12.9633 17.9093 12.7429C18.1616 12.5223 18.4095 12.2966 18.6583 12.072C18.7624 11.9782 18.8666 11.8845 18.9708 11.7907C19.0223 11.7443 19.0739 11.6979 19.127 11.6501C19.5958 11.2282 19.5958 11.2282 19.7515 11.0881C19.8574 10.9928 19.9632 10.8974 20.0689 10.802C20.303 10.5908 20.5374 10.3802 20.7755 10.1735C21.0234 9.9577 21.2651 9.7351 21.5069 9.51244C21.7186 9.31786 21.9332 9.12745 22.1505 8.93917C22.3219 8.78788 22.4901 8.6331 22.6583 8.47823C22.9057 8.25047 23.1553 8.02578 23.4093 7.80538C23.6616 7.58479 23.9095 7.35908 24.1583 7.13448C24.2624 7.04071 24.3666 6.94696 24.4708 6.85323C24.5223 6.80682 24.5739 6.76042 24.627 6.7126C24.7833 6.57198 24.9395 6.43135 25.0958 6.29073C25.1469 6.24464 25.1981 6.19856 25.2508 6.15108C25.3589 6.0539 25.4671 5.9569 25.5755 5.86006C25.7287 5.723 25.8812 5.5853 26.0333 5.44698C26.0691 5.41459 26.105 5.3822 26.1419 5.34883C26.237 5.26193 26.237 5.26193 26.3458 5.13448C26.3458 5.0726 26.3458 5.01073 26.3458 4.94698C25.9626 4.82596 25.6916 4.97297 25.3458 5.13448C25.1537 5.24057 24.9705 5.35771 24.7872 5.47823C24.6827 5.54554 24.5782 5.61284 24.4737 5.68013C24.3949 5.7313 24.3949 5.7313 24.3144 5.7835C24.0722 5.94017 23.8281 6.09396 23.5841 6.24776C23.5357 6.27831 23.4873 6.30886 23.4375 6.34033C22.8474 6.71293 22.2553 7.08223 21.6633 7.45177C21.3491 7.64797 21.0349 7.84436 20.7208 8.04073C20.5958 8.11885 20.4708 8.19698 20.3458 8.2751C20.2839 8.31378 20.222 8.35245 20.1583 8.39229C15.0958 11.5564 15.0958 11.5564 14.9082 11.6736C14.7835 11.7516 14.6587 11.8295 14.534 11.9075C14.2176 12.1052 13.9012 12.3029 13.5848 12.5004C13.0147 12.8564 12.4449 13.2126 11.877 13.572C11.5592 13.773 11.2411 13.9736 10.9224 14.1733C10.86 14.2125 10.7977 14.2517 10.7334 14.2921C10.6052 14.3719 10.4765 14.4508 10.3472 14.5288C9.98355 14.7496 9.65404 14.978 9.33893 15.2646C8.6892 15.7196 8.6892 15.7196 8.26166 15.6754C8.02031 15.6126 7.78661 15.5354 7.55183 15.4521C7.46199 15.4223 7.37206 15.3927 7.28205 15.3634C7.09007 15.3005 6.89853 15.2365 6.7072 15.1717C6.25313 15.0189 5.79465 14.8803 5.33669 14.7397C5.07521 14.6592 4.81408 14.5776 4.55293 14.4961C4.44788 14.4633 4.34282 14.4305 4.23776 14.3977C4.18553 14.3814 4.1333 14.3651 4.07948 14.3483C3.86399 14.2811 3.64846 14.214 3.43293 14.1469C3.22202 14.0812 3.01113 14.0154 2.80025 13.9496C2.70127 13.9188 2.60229 13.8879 2.50329 13.8571C2.20055 13.7628 1.89803 13.6678 1.59578 13.572C1.487 13.5376 1.487 13.5376 1.37602 13.5025C1.31023 13.4812 1.24444 13.46 1.17667 13.438C1.1206 13.42 1.06453 13.4019 1.00676 13.3834C0.63386 13.2412 0.242253 13.0492 0.0332787 12.697C-0.0263103 12.4005 -0.0156959 12.1023 0.14656 11.8415C0.596441 11.3267 1.26984 11.0809 1.89265 10.8454C1.9806 10.8115 2.06852 10.7776 2.15642 10.7435C2.41083 10.6453 2.66564 10.5482 2.92052 10.4512C3.17503 10.3543 3.42933 10.2568 3.68365 10.1594C4.34177 9.90735 5.00018 9.65605 5.65877 9.40523C6.44023 9.10761 7.22122 8.8088 8.00203 8.50948C8.76901 8.21552 9.53612 7.9219 10.3035 7.62911C10.3744 7.60209 10.4452 7.57508 10.5181 7.54724C10.6626 7.4921 10.8072 7.43696 10.9517 7.38182C12.1462 6.92609 13.3402 6.46891 14.5333 6.00948C15.6537 5.57803 16.7748 5.14841 17.8966 4.72042C17.9685 4.69295 18.0405 4.66549 18.1147 4.6372C18.2591 4.5821 18.4035 4.52701 18.5478 4.47191C18.6186 4.44491 18.6894 4.41791 18.7623 4.39009C18.8326 4.36326 18.9029 4.33643 18.9754 4.30878C19.6758 4.04149 20.3761 3.77369 21.0762 3.50557C21.1355 3.48287 21.1948 3.46017 21.2559 3.43678C21.9471 3.17208 22.638 2.9068 23.3287 2.64083C23.3958 2.61497 23.463 2.58911 23.5322 2.56247C23.5996 2.5365 23.6671 2.51053 23.7366 2.48377C23.8042 2.4577 23.8719 2.43163 23.9417 2.40478C24.0777 2.35241 24.2137 2.30003 24.3497 2.24765C25.5251 1.79506 26.702 1.34672 27.88 0.901095C28.477 0.675023 29.0726 0.446809 29.6638 0.205951C30.3029 -0.0451077 30.9254 -0.109983 31.5333 0.259478Z"/>
</svg>
